<svg width="22" height="20" viewBox="0 0 22 20" fill="none" xmlns="http://www.w3.org/2000/svg">
<path d="M20.648 14.5839L13.64 1.5759C13.384 1.0799 13.016 0.695901 12.536 0.423902C12.072 0.135902 11.56 -0.00809813 11 -0.00809813C10.44 -0.00809813 9.92 0.135902 9.44 0.423902C8.976 0.695901 8.616 1.0799 8.36 1.5759L1.352 14.5839C1.096 15.0479 0.976 15.5439 0.992 16.0719C1.008 16.5999 1.152 17.0959 1.424 17.5599C1.696 18.0079 2.056 18.3599 2.504 18.6159C2.968 18.8719 3.472 18.9999 4.016 18.9999H18.008C18.536 18.9999 19.024 18.8719 19.472 18.6159C19.936 18.3599 20.304 18.0079 20.576 17.5599C20.848 17.0959 20.992 16.5999 21.008 16.0719C21.024 15.5439 20.904 15.0479 20.648 14.5839ZM18.008 17.0079H3.992C3.752 17.0079 3.544 16.9359 3.368 16.7919C3.192 16.6319 3.08 16.4399 3.032 16.2159C2.984 15.9759 3.016 15.7439 3.128 15.5199L10.112 2.5359C10.208 2.3599 10.336 2.2319 10.496 2.1519C10.656 2.0559 10.824 2.0079 11 2.0079C11.176 2.0079 11.344 2.0559 11.504 2.1519C11.664 2.2319 11.792 2.3599 11.888 2.5359L18.872 15.5199C18.984 15.7439 19.016 15.9759 18.968 16.2159C18.92 16.4399 18.808 16.6319 18.632 16.7919C18.456 16.9359 18.248 17.0079 18.008 17.0079ZM11.504 11.0079H10.496L9.992 5.0079H12.008L11.504 11.0079ZM12.008 14.0079C12.008 14.2799 11.904 14.5119 11.696 14.7039C11.504 14.8959 11.272 14.9919 11 14.9919C10.728 14.9919 10.488 14.8959 10.28 14.7039C10.088 14.5119 9.992 14.2799 9.992 14.0079C9.992 13.7359 10.088 13.5039 10.28 13.3119C10.488 13.1039 10.728 12.9999 11 12.9999C11.272 12.9999 11.504 13.1039 11.696 13.3119C11.904 13.5039 12.008 13.7359 12.008 14.0079Z" fill="#F74343"/>
</svg>
