<svg width="46" height="47" viewBox="0 0 46 47" fill="none" xmlns="http://www.w3.org/2000/svg">
<path fill-rule="evenodd" clip-rule="evenodd" d="M32.1571 11.1035L32.3261 14.3519C34.9734 17.2642 36.0248 21.39 34.7106 25.273C32.7391 31.0603 26.2428 34.1033 20.1784 32.0684C14.1139 30.0336 10.8282 23.6862 12.7996 17.8989C14.1327 13.9971 17.4935 11.3462 21.3988 10.6554L23.5016 8.17251C16.9114 8.00449 10.7156 12.0556 8.48128 18.5896C5.75884 26.6172 10.0772 35.3168 18.1506 38.0238C26.2241 40.7307 34.9734 36.4369 37.6958 28.4094C39.9113 21.9127 37.4705 14.9306 32.1571 11.1035Z" fill="#0F5EBB"/>
<path fill-rule="evenodd" clip-rule="evenodd" d="M28.3832 20.6989L28.2705 16.1437L28.1766 13.5301L28.1203 11.2525C28.1203 11.2525 28.1391 10.1511 28.1015 9.90839C28.1015 9.85238 28.0827 9.81505 28.064 9.77771V9.74037C28.0264 9.6657 27.9513 9.60969 27.8762 9.57235C27.7823 9.53502 27.6885 9.55369 27.6134 9.59102C27.6134 9.59102 27.5946 9.59102 27.5946 9.60969C27.557 9.62836 27.5195 9.64703 27.4819 9.68437C27.2942 9.87105 26.637 10.7485 26.637 10.7485L25.2101 12.522L23.5391 14.5569L20.6664 18.1039C20.6664 18.1039 19.3522 19.7281 19.6338 21.7443C19.9154 23.7606 21.4362 24.7313 22.6003 25.1234C23.7644 25.5154 25.5668 25.6461 27.0125 24.2273C28.4207 22.7898 28.3832 20.6989 28.3832 20.6989Z" fill="#0F5EBB"/>
</svg>
