<svg width="17" height="17" viewBox="0 0 17 17" fill="none" xmlns="http://www.w3.org/2000/svg">
<path fill-rule="evenodd" clip-rule="evenodd" d="M8.375 1.57386C6.57123 1.57386 4.84133 2.29041 3.56587 3.56587C2.29041 4.84133 1.57386 6.57123 1.57386 8.375C1.57386 10.1788 2.29041 11.9087 3.56587 13.1841C4.84133 14.4596 6.57123 15.1761 8.375 15.1761C10.1788 15.1761 11.9087 14.4596 13.1841 13.1841C14.4596 11.9087 15.1761 10.1788 15.1761 8.375C15.1761 6.57123 14.4596 4.84133 13.1841 3.56587C11.9087 2.29041 10.1788 1.57386 8.375 1.57386ZM0.5 8.375C0.5 7.34084 0.703693 6.31681 1.09945 5.36137C1.4952 4.40593 2.07527 3.5378 2.80653 2.80653C3.5378 2.07527 4.40593 1.4952 5.36137 1.09945C6.31681 0.703693 7.34084 0.5 8.375 0.5C9.40916 0.5 10.4332 0.703693 11.3886 1.09945C12.3441 1.4952 13.2122 2.07527 13.9435 2.80653C14.6747 3.5378 15.2548 4.40593 15.6506 5.36137C16.0463 6.31681 16.25 7.34084 16.25 8.375C16.25 10.4636 15.4203 12.4666 13.9435 13.9435C12.4666 15.4203 10.4636 16.25 8.375 16.25C6.28642 16.25 4.28338 15.4203 2.80653 13.9435C1.32969 12.4666 0.5 10.4636 0.5 8.375Z" fill="#0F5EBB"/>
<path fill-rule="evenodd" clip-rule="evenodd" d="M15.535 8.85224H1.2168V7.89769H15.535V8.85224Z" fill="#0F5EBB"/>
<path fill-rule="evenodd" clip-rule="evenodd" d="M7.89808 15.5341V1.21593H8.85263V15.5341H7.89808ZM11.8058 8.37502C11.8058 5.78224 10.8739 3.21809 9.04592 1.52258L9.61388 0.909286C11.6447 2.79451 12.641 5.59849 12.641 8.37502C12.641 11.1516 11.6447 13.9567 9.61388 15.8408L9.04592 15.2275C10.8739 13.5331 11.8058 10.9678 11.8058 8.37502ZM4.19922 8.37502C4.19922 5.60207 5.16331 2.79929 7.13206 0.914059L7.70956 1.51781C5.93888 3.21213 5.03445 5.77747 5.03445 8.37502C5.03445 10.9714 5.93888 13.5379 7.70956 15.2322L7.13206 15.836C5.16331 13.9508 4.19922 11.1468 4.19922 8.37502Z" fill="#0F5EBB"/>
<path fill-rule="evenodd" clip-rule="evenodd" d="M8.37454 4.14879C10.9637 4.14879 13.5947 4.62725 15.3785 5.62356C15.4265 5.6502 15.4687 5.68602 15.5028 5.72898C15.5369 5.77194 15.5622 5.82119 15.5773 5.87393C15.5924 5.92667 15.5969 5.98186 15.5906 6.03635C15.5844 6.09084 15.5674 6.14357 15.5408 6.19152C15.5142 6.23946 15.4783 6.28169 15.4354 6.3158C15.3924 6.3499 15.3432 6.37521 15.2904 6.39028C15.2377 6.40535 15.1825 6.40988 15.128 6.40362C15.0735 6.39736 15.0208 6.38043 14.9728 6.35379C13.362 5.45413 10.8898 4.98402 8.37454 4.98402C5.85932 4.98402 3.38705 5.45413 1.77625 6.35379C1.67942 6.40759 1.56518 6.42071 1.45867 6.39028C1.35215 6.35985 1.26209 6.28835 1.2083 6.19152C1.1545 6.09468 1.14137 5.98044 1.17181 5.87393C1.20224 5.76742 1.27373 5.67736 1.37057 5.62356C3.15438 4.62725 5.78534 4.14879 8.37454 4.14879ZM8.37454 12.3722C10.9637 12.3722 13.5947 11.8937 15.3785 10.8974C15.4265 10.8708 15.4687 10.835 15.5028 10.792C15.5369 10.749 15.5622 10.6998 15.5773 10.6471C15.5924 10.5943 15.5969 10.5391 15.5906 10.4846C15.5844 10.4301 15.5674 10.3774 15.5408 10.3295C15.5142 10.2815 15.4783 10.2393 15.4354 10.2052C15.3924 10.1711 15.3432 10.1458 15.2904 10.1307C15.2377 10.1156 15.1825 10.1111 15.128 10.1174C15.0735 10.1236 15.0208 10.1406 14.9728 10.1672C13.362 11.0669 10.8898 11.537 8.37454 11.537C5.85932 11.537 3.38705 11.0669 1.77625 10.1672C1.72823 10.1374 1.67467 10.1177 1.61882 10.1093C1.56296 10.1008 1.50597 10.1038 1.45129 10.118C1.39662 10.1322 1.34539 10.1573 1.30071 10.1919C1.25603 10.2265 1.21884 10.2698 1.19137 10.3191C1.1639 10.3685 1.14673 10.4229 1.1409 10.4791C1.13507 10.5353 1.1407 10.5921 1.15746 10.646C1.17421 10.7 1.20173 10.75 1.23836 10.793C1.275 10.836 1.31997 10.8711 1.37057 10.8962C3.15438 11.8937 5.78534 12.3722 8.37454 12.3722Z" fill="#0F5EBB"/>
</svg>
