<svg width="28" height="28" viewBox="0 0 28 28" fill="none" xmlns="http://www.w3.org/2000/svg">
<g clip-path="url(#clip0_647_3820)">
<path d="M17.1112 18.6668C17.9703 18.6668 18.6668 17.9703 18.6668 17.1112C18.6668 16.2521 17.9703 15.5557 17.1112 15.5557C16.2521 15.5557 15.5557 16.2521 15.5557 17.1112C15.5557 17.9703 16.2521 18.6668 17.1112 18.6668Z" stroke="#1C58D9" stroke-width="1.03704" stroke-linecap="round" stroke-linejoin="round"/>
<path d="M10.8886 12.4446C11.7477 12.4446 12.4441 11.7482 12.4441 10.8891C12.4441 10.0299 11.7477 9.3335 10.8886 9.3335C10.0295 9.3335 9.33301 10.0299 9.33301 10.8891C9.33301 11.7482 10.0295 12.4446 10.8886 12.4446Z" stroke="#1C58D9" stroke-width="1.03704" stroke-linecap="round" stroke-linejoin="round"/>
<path d="M12.9629 10.8889H14.5184M17.111 15.5556V13.7408V12.8334" stroke="#1C58D9" stroke-width="1.03704" stroke-linecap="round" stroke-linejoin="round"/>
<path d="M10.8887 12.4446V18.6668" stroke="#1C58D9" stroke-width="1.03704" stroke-linecap="round" stroke-linejoin="round"/>
<path d="M17.7856 9.48894L18.3041 8.97042C18.5115 8.76302 18.8227 8.76302 19.0301 8.97042C19.2375 9.17783 19.2375 9.48894 19.0301 9.69635L18.5115 10.2149C18.4078 10.3186 18.3041 10.3704 18.1486 10.3704C17.993 10.3704 17.8893 10.3186 17.7856 10.2149C17.5782 10.0075 17.5782 9.69635 17.7856 9.48894ZM15.556 9.33339V8.29635C15.556 7.98524 15.7634 7.77783 16.0745 7.77783C16.3856 7.77783 16.593 7.98524 16.593 8.29635V9.33339C16.593 9.6445 16.3856 9.85191 16.0745 9.85191C15.7634 9.85191 15.556 9.6445 15.556 9.33339ZM18.6671 12.4445C18.356 12.4445 18.1486 12.2371 18.1486 11.926C18.1486 11.6149 18.356 11.4075 18.6671 11.4075H19.7041C20.0152 11.4075 20.2227 11.6149 20.2227 11.926C20.2227 12.2371 20.0152 12.4445 19.7041 12.4445H18.6671Z" fill="#1C58D9"/>
<path d="M15.556 8.29635V9.33339C15.556 9.6445 15.7634 9.85191 16.0745 9.85191C16.3856 9.85191 16.593 9.6445 16.593 9.33339V8.29635C16.593 7.98524 16.3856 7.77783 16.0745 7.77783C15.7634 7.77783 15.556 7.98524 15.556 8.29635Z" fill="#1C58D9"/>
<path d="M18.1486 11.926C18.1486 12.2371 18.356 12.4445 18.6671 12.4445H19.7041C20.0152 12.4445 20.2227 12.2371 20.2227 11.926C20.2227 11.6149 20.0152 11.4075 19.7041 11.4075H18.6671C18.356 11.4075 18.1486 11.6149 18.1486 11.926Z" fill="#1C58D9"/>
</g>
<rect x="0.388889" y="0.388889" width="27.2222" height="27.2222" rx="2.72222" stroke="#1C58D9" stroke-width="0.777778"/>
<defs>
<clipPath id="clip0_647_3820">
<rect width="12.4444" height="12.4444" fill="white" transform="translate(7.77734 7.77783)"/>
</clipPath>
</defs>
</svg>
