<svg width="22" height="21" viewBox="0 0 22 21" fill="none" xmlns="http://www.w3.org/2000/svg">
<path d="M20.648 15.584C20.904 16.048 21.024 16.544 21.008 17.072C20.992 17.6 20.848 18.096 20.576 18.56C20.304 19.008 19.936 19.36 19.472 19.616C19.024 19.872 18.536 20 18.008 20H4.016C3.472 20 2.968 19.872 2.504 19.616C2.056 19.36 1.696 19.008 1.424 18.56C1.152 18.096 1.008 17.6 0.992 17.072C0.976 16.544 1.096 16.048 1.352 15.584L8.36 2.57602C8.616 2.08002 8.976 1.69602 9.44 1.42402C9.92 1.13602 10.44 0.992024 11 0.992024C11.56 0.992024 12.072 1.13602 12.536 1.42402C13.016 1.69602 13.384 2.08002 13.64 2.57602L20.648 15.584ZM18.008 18.008C18.248 18.008 18.456 17.936 18.632 17.792C18.808 17.632 18.92 17.44 18.968 17.216C19.016 16.976 18.984 16.744 18.872 16.52L11.888 3.53602C11.792 3.36002 11.664 3.23202 11.504 3.15202C11.344 3.05602 11.176 3.00802 11 3.00802C10.824 3.00802 10.656 3.05602 10.496 3.15202C10.336 3.23202 10.208 3.36002 10.112 3.53602L3.128 16.52C3.016 16.744 2.984 16.976 3.032 17.216C3.08 17.44 3.192 17.632 3.368 17.792C3.544 17.936 3.752 18.008 3.992 18.008H18.008ZM11.504 12.008L12.008 6.00802H9.992L10.496 12.008H11.504ZM12.008 15.008C12.008 14.736 11.904 14.504 11.696 14.312C11.504 14.104 11.272 14 11 14C10.728 14 10.488 14.104 10.28 14.312C10.088 14.504 9.992 14.736 9.992 15.008C9.992 15.28 10.088 15.512 10.28 15.704C10.488 15.896 10.728 15.992 11 15.992C11.272 15.992 11.504 15.896 11.696 15.704C11.904 15.512 12.008 15.28 12.008 15.008Z" fill="#D24B4E"/>
</svg>
