<svg version="1.0" xmlns="http://www.w3.org/2000/svg" width="512.000000pt" height="512.000000pt" viewBox="0 0 512.000000 512.000000" preserveAspectRatio="xMidYMid meet">
    <g transform="translate(0.000000,512.000000) scale(0.100000,-0.100000)" fill="#000000" stroke="none">
        <path d="M2380 4945 c-293 -47 -576 -227 -747 -476 -46 -67 -110 -200 -138 -286 -48 -145 -55 -228 -55 -625 l0 -368 -22 -4 c-146 -30 -218 -55 -332 -112 -311 -158 -534 -467 -591 -819 -21 -129 -21 -1007 0 -1145 42 -277 187 -528 407 -704 148 -119 340 -203 528 -231 142 -22 2119 -22 2263 0 477 72 860 455 932 935 22 142 21 1021 0 1146 -22 127 -48 206 -103 320 -157 320 -442 533 -814 609 l-28 5 0 363 c0 265 -4 388 -15 457 -43 285 -199 549 -427 721 -246 185 -554 262 -858 214z m370 -328 c209 -57 368 -171 480 -344 27 -40 58 -99 70 -131 54 -142 54 -143 58 -554 l3 -388 -800 0 -801 0 0 354 c0 264 4 373 14 428 64 331 303 573 636 644 80 17 262 12 340 -9z m960 -1759 c161 -48 274 -113 375 -213 69 -69 146 -185 175 -263 56 -148 55 -137 55 -702 0 -565 1 -554 -55 -702 -29 -78 -106 -194 -175 -263 -69 -69 -185 -146 -263 -175 -155 -58 -77 -54 -1217 -58 -1125 -3 -1134 -3 -1276 47 -204 72 -398 257 -469 449 -55 146 -54 133 -58 657 -2 346 0 512 8 565 54 337 303 596 640 665 52 11 280 13 1135 12 965 -2 1075 -4 1125 -19z"/>
        <path d="M2495 1986 c-41 -18 -83 -69 -90 -109 -4 -18 -5 -118 -3 -224 3 -210 5 -218 72 -267 39 -29 133 -29 172 0 68 51 69 53 69 294 0 205 -1 220 -21 246 -11 15 -32 37 -46 47 -33 25 -113 32 -153 13z"/>
    </g>
</svg>
