<svg width="18" height="13" viewBox="0 0 18 13" fill="none" xmlns="http://www.w3.org/2000/svg">
<path d="M7.64247 6.36409C7.57696 6.81848 7.60995 7.28164 7.73918 7.72215C7.86842 8.16267 8.09088 8.57024 8.39148 8.91722C8.69208 9.26421 9.06379 9.54248 9.48139 9.73317C9.89899 9.92386 10.3527 10.0225 10.8118 10.0224L13.5284 10.0224C14.3677 10.0078 15.1677 9.66418 15.7561 9.06545C16.3445 8.46673 16.6743 7.66085 16.6743 6.82138C16.6743 5.98192 16.3445 5.17604 15.7561 4.57731C15.1677 3.97859 14.3677 3.63492 13.5284 3.62033L11.9754 3.61581" stroke="#919399" stroke-width="1.5" stroke-linecap="round" stroke-linejoin="round"/>
<path d="M10.3582 7.26969C10.4237 6.81531 10.3907 6.35215 10.2614 5.91163C10.1322 5.47111 9.90975 5.06354 9.60914 4.71656C9.30854 4.36958 8.93684 4.0913 8.51923 3.90061C8.10163 3.70992 7.6479 3.61127 7.18882 3.61135L4.47224 3.61135C3.63291 3.62594 2.83289 3.96961 2.24448 4.56833C1.65607 5.16706 1.32636 5.97294 1.32636 6.8124C1.32636 7.65186 1.65607 8.45774 2.24448 9.05647C2.83289 9.65519 3.63291 9.99886 4.47224 10.0134L6.02069 10.0134" stroke="#919399" stroke-width="1.5" stroke-linecap="round" stroke-linejoin="round"/>
</svg>
