<svg width="93" height="93" viewBox="0 0 93 93" fill="none" xmlns="http://www.w3.org/2000/svg">
<path fill-rule="evenodd" clip-rule="evenodd" d="M46.5 6.34091C35.8491 6.34091 25.6345 10.5719 18.1032 18.1032C10.5719 25.6345 6.34091 35.8491 6.34091 46.5C6.34091 57.1509 10.5719 67.3655 18.1032 74.8968C25.6345 82.4281 35.8491 86.6591 46.5 86.6591C57.1508 86.6591 67.3655 82.4281 74.8968 74.8968C82.4281 67.3655 86.6591 57.1509 86.6591 46.5C86.6591 35.8491 82.4281 25.6345 74.8968 18.1032C67.3655 10.5719 57.1508 6.34091 46.5 6.34091ZM0 46.5C-9.09934e-08 40.3935 1.20276 34.3469 3.5396 28.7052C5.87644 23.0636 9.30161 17.9375 13.6195 13.6195C17.9375 9.30161 23.0636 5.87645 28.7052 3.5396C34.3469 1.20276 40.3935 0 46.5 0C52.6065 0 58.6531 1.20276 64.2948 3.5396C69.9364 5.87645 75.0625 9.30161 79.3805 13.6195C83.6984 17.9375 87.1236 23.0636 89.4604 28.7052C91.7972 34.3469 93 40.3935 93 46.5C93 58.8326 88.1009 70.66 79.3805 79.3805C70.66 88.1009 58.8326 93 46.5 93C34.1674 93 22.34 88.1009 13.6195 79.3805C4.89909 70.66 1.8377e-07 58.8326 0 46.5Z" fill="#0F5EBB"/>
<path fill-rule="evenodd" clip-rule="evenodd" d="M88.7752 49.3179H4.22974V43.6815H88.7752V49.3179Z" fill="#0F5EBB"/>
<path fill-rule="evenodd" clip-rule="evenodd" d="M43.681 88.7729V4.22743H49.3174V88.7729H43.681ZM66.7549 46.5002C66.7549 31.1904 61.2524 16.0497 50.4587 6.03811L53.8124 2.41675C65.8037 13.5486 71.6867 30.1054 71.6867 46.5002C71.6867 62.8949 65.8037 79.4588 53.8124 90.5836L50.4587 86.9622C61.2524 76.9577 66.7549 61.8099 66.7549 46.5002ZM21.8401 46.5002C21.8401 30.1265 27.5328 13.5767 39.1578 2.44493L42.5678 6.00993C32.1124 16.0145 26.7719 31.1622 26.7719 46.5002C26.7719 61.8311 32.1124 76.9858 42.5678 86.9904L39.1578 90.5554C27.5328 79.4236 21.8401 62.8667 21.8401 46.5002Z" fill="#0F5EBB"/>
<path fill-rule="evenodd" clip-rule="evenodd" d="M46.4973 21.5453C61.786 21.5453 77.3212 24.3705 87.8542 30.2535C88.1373 30.4108 88.3866 30.6223 88.588 30.8759C88.7894 31.1296 88.9388 31.4204 89.0278 31.7318C89.1168 32.0433 89.1436 32.3691 89.1066 32.6909C89.0696 33.0127 88.9696 33.324 88.8123 33.6071C88.6551 33.8902 88.4436 34.1396 88.1899 34.341C87.9362 34.5423 87.6454 34.6918 87.334 34.7808C87.0226 34.8697 86.6967 34.8965 86.3749 34.8595C86.0532 34.8226 85.7418 34.7226 85.4587 34.5653C75.9473 29.253 61.3492 26.4771 46.4973 26.4771C31.6455 26.4771 17.0474 29.253 7.53599 34.5653C6.96421 34.8829 6.28965 34.9605 5.66073 34.7808C5.0318 34.6011 4.50001 34.1789 4.18235 33.6071C3.8647 33.0353 3.78719 32.3608 3.96688 31.7318C4.14658 31.1029 4.56875 30.5711 5.14054 30.2535C15.6735 24.3705 31.2087 21.5453 46.4973 21.5453ZM46.4973 70.1026C61.786 70.1026 77.3212 67.2773 87.8542 61.3944C88.1373 61.2371 88.3866 61.0256 88.588 60.7719C88.7894 60.5183 88.9388 60.2274 89.0278 59.916C89.1168 59.6046 89.1436 59.2787 89.1066 58.9569C89.0696 58.6352 88.9696 58.3239 88.8123 58.0407C88.6551 57.7576 88.4436 57.5083 88.1899 57.3069C87.9362 57.1055 87.6454 56.9561 87.334 56.8671C87.0226 56.7781 86.6967 56.7513 86.3749 56.7883C86.0532 56.8253 85.7418 56.9253 85.4587 57.0826C75.9473 62.3948 61.3492 65.1707 46.4973 65.1707C31.6455 65.1707 17.0474 62.3948 7.53599 57.0826C7.25244 56.9069 6.93619 56.7905 6.60638 56.7406C6.27657 56.6906 5.94006 56.7081 5.6172 56.792C5.29435 56.8758 4.99186 57.0243 4.72805 57.2285C4.46424 57.4326 4.24459 57.6881 4.08239 57.9796C3.92019 58.2711 3.81882 58.5925 3.7844 58.9243C3.74998 59.2561 3.78324 59.5914 3.88216 59.9099C3.98108 60.2285 4.14361 60.5237 4.3599 60.7776C4.5762 61.0316 4.84177 61.239 5.14054 61.3873C15.6735 67.2773 31.2087 70.1026 46.4973 70.1026Z" fill="#0F5EBB"/>
</svg>
