<svg width="48" height="48" viewBox="0 0 48 48" fill="#1e325c" xmlns="http://www.w3.org/2000/svg">
<path fill-rule="evenodd" clip-rule="evenodd" d="M30.8497 20.3433C30.8497 20.3433 30.9118 23.0726 29.0192 24.9267C27.1263 26.7809 24.8016 26.6114 23.2893 26.0993C21.7768 25.5873 19.8272 24.3097 19.4498 21.6874C19.0726 19.0648 20.7797 16.9343 20.7797 16.9343L24.4996 12.3082L26.6662 9.66617L28.5259 7.36376C28.5259 7.36376 29.3793 6.22059 29.6225 5.98465C29.6707 5.9379 29.7202 5.90722 29.7686 5.8836L29.8039 5.86558L29.8103 5.86315C29.9125 5.81908 30.0304 5.80958 30.1441 5.84805C30.2553 5.88579 30.3415 5.96225 30.3961 6.05648L30.4075 6.07474L30.4175 6.09568C30.444 6.14584 30.4662 6.20306 30.4767 6.27367C30.5263 6.60895 30.51 8.03554 30.51 8.03554L30.5887 10.9939L30.7048 14.4088L30.8497 20.3433ZM35.665 7.81734C42.5451 12.8247 45.7004 21.9118 42.8313 30.411C39.3001 40.8707 27.9817 46.4796 17.5511 42.9389C7.12042 39.3978 1.52727 28.0482 5.05823 17.5885C7.93213 9.07544 15.9643 3.77619 24.478 4.00726L21.749 7.24052C16.6983 8.15628 12.3375 11.615 10.6234 16.6924C8.07321 24.2466 12.3476 32.5235 20.1708 35.1789C27.9936 37.8346 36.4029 33.8636 38.9532 26.3094C40.6616 21.2488 39.3069 15.8643 35.875 12.0623L35.665 7.81734Z" fill="#1E325C"/>
</svg>
