<svg width="48" height="48" viewBox="0 0 48 48" fill="none" xmlns="http://www.w3.org/2000/svg">
<path d="M32.7429 19H43.8499C44.3539 19 44.8372 19.2002 45.1935 19.5565C45.5499 19.9129 45.7501 20.3962 45.7501 20.9001V31.0172C45.7501 34.8739 42.6236 37.9999 38.7669 37.9999H38.7342C34.8774 38.0009 31.7505 34.8749 31.75 31.0182V19.9929C31.75 19.4444 32.1944 19 32.7429 19ZM40.2498 17.0003C41.4433 17.0003 42.588 16.5261 43.4319 15.6822C44.2758 14.8383 44.75 13.6936 44.75 12.5001C44.75 11.3066 44.2758 10.162 43.4319 9.31806C42.588 8.47412 41.4433 8 40.2498 8C39.0563 8 37.9117 8.47412 37.0678 9.31806C36.2238 10.162 35.7497 11.3066 35.7497 12.5001C35.7497 13.6936 36.2238 14.8383 37.0678 15.6822C37.9117 16.5261 39.0563 17.0003 40.2498 17.0003Z" fill="#5059C9"/>
<path d="M26.2501 17.0002C29.8398 17.0002 32.7497 14.0898 32.7497 10.4996C32.7497 6.91041 29.8398 4 26.2501 4C22.6604 4 19.7505 6.90991 19.7505 10.5001C19.7505 14.0898 22.6604 17.0002 26.2501 17.0002ZM34.9169 18.9999H16.5829C16.0849 19.0121 15.6122 19.2215 15.2684 19.5821C14.9247 19.9426 14.7381 20.4249 14.7497 20.9229V32.4624C14.605 38.6841 19.5275 43.8479 25.7497 44C31.9718 43.8479 36.8948 38.6841 36.7497 32.4619V20.9229C36.7611 20.4249 36.5745 19.9428 36.2308 19.5824C35.887 19.2219 35.4143 19.0126 34.9164 19.0004L34.9169 18.9999Z" fill="#7B83EB"/>
<path opacity="0.1" d="M26.7504 19V35.1702C26.7479 35.5329 26.6384 35.8866 26.4355 36.1872C26.2327 36.4878 25.9456 36.7218 25.6103 36.8598C25.3923 36.9525 25.1574 37 24.9201 37H15.63C15.4985 36.6721 15.3818 36.3385 15.2802 36.0002C14.9301 34.8527 14.7514 33.6597 14.75 32.46V20.9205C14.7383 20.4231 14.9245 19.9415 15.2677 19.5814C15.6109 19.2213 16.083 19.0122 16.5803 19H26.7504Z" fill="black"/>
<path opacity="0.2" d="M25.75 19V36.1701C25.75 36.4069 25.7025 36.6418 25.6103 36.8598C25.4722 37.1952 25.2381 37.4823 24.9375 37.6851C24.6368 37.8879 24.2829 37.9974 23.9202 37.9999H16.1002C15.9293 37.6734 15.7725 37.3398 15.63 37C15.4956 36.6732 15.3789 36.3394 15.2802 36.0002C14.9301 34.8527 14.7514 33.6597 14.75 32.46V20.9205C14.7383 20.4231 14.9245 19.9415 15.2677 19.5814C15.6109 19.2213 16.083 19.0122 16.5803 19H25.75Z" fill="black"/>
<path opacity="0.2" d="M25.75 19V34.1699C25.7464 34.6541 25.5525 35.1175 25.2101 35.4599C24.8678 35.8023 24.4045 35.9964 23.9202 36.0002H15.2802C14.9301 34.8527 14.7514 33.6597 14.75 32.46V20.9205C14.7383 20.4231 14.9245 19.9415 15.2677 19.5814C15.6109 19.2213 16.083 19.0122 16.5803 19H25.75Z" fill="black"/>
<path opacity="0.2" d="M24.7502 19V34.1699C24.7465 34.6541 24.5526 35.1175 24.2102 35.4599C23.8679 35.8023 23.4046 35.9964 22.9204 36.0002H15.2802C14.9301 34.8527 14.7514 33.6597 14.75 32.46V20.9205C14.7383 20.4231 14.9245 19.9415 15.2677 19.5814C15.6109 19.2213 16.083 19.0122 16.5803 19H24.7502Z" fill="black"/>
<path opacity="0.1" d="M26.7504 13.8303V16.98C26.5799 16.9899 26.4204 16.9998 26.2499 16.9998C26.08 16.9998 25.9199 16.9899 25.75 16.98C25.4125 16.9576 25.0778 16.904 24.7501 16.82C23.7518 16.5835 22.8237 16.1141 22.0416 15.4502C21.2595 14.7862 20.6456 13.9465 20.2503 12.9999C20.1122 12.6774 20.0051 12.3426 19.9302 12H24.9201C25.4049 12.0018 25.8694 12.1952 26.2123 12.5381C26.5551 12.8809 26.7485 13.3454 26.7504 13.8303Z" fill="black"/>
<path opacity="0.2" d="M25.7497 14.83V16.9804C25.4122 16.9578 25.0775 16.9041 24.7499 16.8199C23.7516 16.5834 22.8234 16.114 22.0413 15.45C21.2592 14.7861 20.6454 13.9464 20.25 12.9998H23.92C24.4048 13.0016 24.8692 13.195 25.212 13.5379C25.5547 13.8807 25.748 14.3452 25.7497 14.83Z" fill="black"/>
<path opacity="0.2" d="M25.7497 14.83V16.9804C25.4122 16.9578 25.0775 16.9041 24.7499 16.8199C23.7516 16.5834 22.8234 16.114 22.0413 15.45C21.2592 14.7861 20.6454 13.9464 20.25 12.9998H23.92C24.4048 13.0016 24.8692 13.195 25.212 13.5379C25.5547 13.8807 25.748 14.3452 25.7497 14.83Z" fill="black"/>
<path opacity="0.2" d="M24.7499 14.83V16.8199C23.7516 16.5834 22.8235 16.1139 22.0414 15.45C21.2593 14.786 20.6454 13.9464 20.25 12.9998H22.9201C23.4049 13.0017 23.8692 13.1952 24.212 13.538C24.5547 13.8809 24.7481 14.3453 24.7499 14.83Z" fill="black"/>
<path d="M4.58325 13.0003H22.9167C23.4029 13.0003 23.8691 13.1933 24.2129 13.537C24.5566 13.8807 24.7498 14.3469 24.75 14.833V33.167C24.75 33.6532 24.5568 34.1195 24.213 34.4633C23.8692 34.8071 23.4029 35.0002 22.9167 35.0002H4.58325C4.09704 35.0002 3.63075 34.8071 3.28695 34.4633C2.94315 34.1195 2.75 33.6532 2.75 33.167V14.833C2.75 14.3468 2.94315 13.8805 3.28695 13.5367C3.63075 13.1929 4.09704 12.9998 4.58325 12.9998V13.0003Z" fill="url(#paint0_linear_597_11805)"/>
<path d="M18.5741 19.978H14.9091V29.9579H12.5744V19.978H8.92627V18.0422H18.5741V19.978Z" fill="white"/>
<defs>
<linearGradient id="paint0_linear_597_11805" x1="6.57158" y1="11.5678" x2="20.9279" y2="36.4321" gradientUnits="userSpaceOnUse">
<stop stop-color="#5A62C3"/>
<stop offset="0.5" stop-color="#4D55BD"/>
<stop offset="1" stop-color="#3940AB"/>
</linearGradient>
</defs>
</svg>
