<svg width="100" height="94" fill="none" xmlns="http://www.w3.org/2000/svg">
    <mask id="a" style="mask-type:alpha" maskUnits="userSpaceOnUse" x="5" y="0" width="87" height="81">
        <path fill-rule="evenodd" clip-rule="evenodd" d="M91.786 0H5v80.512h54.23a26.065 26.065 0 0 1-1.95-9.921c0-14.437 11.704-26.14 26.141-26.14 2.925 0 5.739.48 8.365 1.367V0Z" fill="#D9D9D9"/>
    </mask>
    <g mask="url(#a)" transform="translate(6.863 6.296) scale(.86479)">
        <path d="M65.534 30.274h22.417a3.835 3.835 0 0 1 3.835 3.835v20.419c0 7.784-6.31 14.093-14.094 14.093h-.066c-7.784.002-14.095-6.307-14.096-14.091V32.278c0-1.107.897-2.004 2.004-2.004zm15.151-4.036a9.082 9.082 0 1 0 0-18.165 9.082 9.082 0 0 0 0 18.165z" fill="#5059c9"/>
        <path d="M52.43 26.238c7.245 0 13.118-5.874 13.118-13.12C65.548 5.874 59.675 0 52.43 0S39.312 5.873 39.312 13.119c0 7.245 5.873 13.119 13.118 13.119zm17.492 4.036H32.919a3.794 3.794 0 0 0-3.7 3.881v23.29c-.292 12.557 9.643 22.979 22.201 23.286 12.558-.307 22.494-10.729 22.201-23.287V34.155a3.794 3.794 0 0 0-3.7-3.88z" fill="#7b83eb"/>
        <path opacity=".1" d="M53.439 30.274V62.91a3.715 3.715 0 0 1-2.301 3.41c-.44.187-.914.283-1.393.283h-18.75a23.873 23.873 0 0 1-.706-2.018 24.58 24.58 0 0 1-1.07-7.145V34.15a3.788 3.788 0 0 1 3.694-3.876z" fill="#000"/>
        <path opacity=".2" d="M51.42 30.274v34.654c0 .478-.096.952-.282 1.392a3.716 3.716 0 0 1-3.411 2.301H31.944a26.2 26.2 0 0 1-.949-2.018 19.997 19.997 0 0 1-.706-2.018 24.58 24.58 0 0 1-1.07-7.145V34.15a3.788 3.788 0 0 1 3.694-3.876z" fill="#000"/>
        <path opacity=".2" d="M51.42 30.274v30.617a3.722 3.722 0 0 1-3.693 3.694H30.289a24.58 24.58 0 0 1-1.07-7.145V34.15a3.788 3.788 0 0 1 3.694-3.876z" fill="#000"/>
        <path opacity=".2" d="M49.402 30.274v30.617a3.722 3.722 0 0 1-3.693 3.694h-15.42a24.58 24.58 0 0 1-1.07-7.145V34.15a3.788 3.788 0 0 1 3.694-3.876z" fill="#000"/>
        <path opacity=".1" d="M53.439 19.84v6.357c-.344.02-.666.04-1.01.04-.343 0-.666-.02-1.009-.04a11.077 11.077 0 0 1-2.018-.323 13.119 13.119 0 0 1-9.082-7.71 11.214 11.214 0 0 1-.646-2.018h10.071a3.708 3.708 0 0 1 3.694 3.694z" fill="#000"/>
        <path opacity=".2" d="M51.42 21.858v4.34a11.077 11.077 0 0 1-2.018-.324 13.119 13.119 0 0 1-9.082-7.71h7.407a3.707 3.707 0 0 1 3.693 3.694z" fill="#000"/>
        <path opacity=".2" d="M51.42 21.858v4.34a11.077 11.077 0 0 1-2.018-.324 13.119 13.119 0 0 1-9.082-7.71h7.407a3.707 3.707 0 0 1 3.693 3.694z" fill="#000"/>
        <path opacity=".2" d="M49.402 21.858v4.016a13.12 13.12 0 0 1-9.082-7.71h5.389a3.708 3.708 0 0 1 3.693 3.694z" fill="#000"/>
        <path d="M8.7 18.165h37.002a3.7 3.7 0 0 1 3.7 3.699v37.003a3.7 3.7 0 0 1-3.7 3.7H8.7a3.7 3.7 0 0 1-3.7-3.7V21.864a3.7 3.7 0 0 1 3.7-3.7z" fill="url(#b)" style="fill:url(#b)"/>
        <path d="M36.937 32.248H29.54V52.39h-4.712V32.248h-7.363v-3.907h19.472z" fill="#fff"/>
    </g>
    <path d="M76.984 81.31v4.985l.384-.375 6.356-6.207.165-.162-.165-.161-6.355-6.245-.385-.378v4.985a9.411 9.411 0 0 1-4.457-1.202 9.532 9.532 0 0 1-3.38-3.321 9.013 9.013 0 0 1-1.225-4.597c0-1.559.36-2.979 1.075-4.264l.084-.151-.123-.12-2.321-2.282-.201-.197-.15.239c-1.315 2.104-1.975 4.364-1.975 6.775 0 2.284.582 4.418 1.744 6.397l.002.003a13.232 13.232 0 0 0 4.645 4.564l.003.002a12.964 12.964 0 0 0 6.28 1.71zm.452-17.35v-4.446a8.98 8.98 0 0 1 4.417 1.238l.004.002a8.778 8.778 0 0 1 3.378 3.319l.002.004a8.609 8.609 0 0 1 1.262 4.556c0 1.56-.36 2.98-1.076 4.265l-.084.152.125.12 2.321 2.244.2.194.149-.236a12.79 12.79 0 0 0 1.433-3.195c.362-1.144.542-2.325.542-3.544a12.42 12.42 0 0 0-1.743-6.396l-.002-.003a13.234 13.234 0 0 0-4.645-4.564l-.004-.002a12.964 12.964 0 0 0-6.279-1.71V50.97l-.384.375-6.355 6.207-.165.161.164.162 6.356 6.245.384.377z" fill="#4850b9" stroke="#4850b9" stroke-width=".523"/>
    <defs>
        <linearGradient id="b" x1="12.713" y1="15.274" x2="41.688" y2="65.457" gradientUnits="userSpaceOnUse">
            <stop stop-color="#5A62C3"/>
            <stop offset=".5" stop-color="#4D55BD"/>
            <stop offset="1" stop-color="#3940AB"/>
        </linearGradient>
    </defs>
</svg>
